<svg xmlns="http://www.w3.org/2000/svg" width="369.535" height="268.216" viewBox="0 0 369.535 268.216">
  <g id="contact" transform="translate(-176.41 -630.55)">
    <g id="Group_89692" data-name="Group 89692" transform="translate(438.022 737.759)">
      <path id="Path_100930" data-name="Path 100930" d="M2667.592,1661.8a3.091,3.091,0,0,0,1.921-2.416,11.148,11.148,0,0,1,10.775-9.47,10.614,10.614,0,0,1,8,3.7,6.072,6.072,0,0,0,5.1,2.122,7.435,7.435,0,0,1,2.7.28,8.528,8.528,0,0,1,6.051,7.29c.612,5.289-3.274,9.787-8.154,9.787h-24.431a5.7,5.7,0,0,1-5.594-4.626A5.849,5.849,0,0,1,2667.592,1661.8Z" transform="translate(-2663.852 -1649.91)" fill="#ceedff"/>
    </g>
    <g id="Group_89693" data-name="Group 89693" transform="translate(447.329 672.408)">
      <path id="Path_100931" data-name="Path 100931" d="M2752.34,1131.75v-.828a15.413,15.413,0,0,0,15.4-15.4v-22.216a16.239,16.239,0,0,1,16.22-16.223h2.2a23.86,23.86,0,0,0,0-47.72h-26.948v-.828h26.948a24.688,24.688,0,0,1,0,49.377h-2.2a15.411,15.411,0,0,0-15.392,15.4v22.216A16.242,16.242,0,0,1,2752.34,1131.75Z" transform="translate(-2752.34 -1028.54)" fill="#0871f7"/>
    </g>
    <g id="Group_89694" data-name="Group 89694" transform="translate(271.983 810.088)">
      <path id="Path_100932" data-name="Path 100932" d="M1090.125,2353.5a4.125,4.125,0,0,0,2.566-3.227c1.257-7.2,7.223-12.65,14.393-12.65a14.175,14.175,0,0,1,10.682,4.938,8.111,8.111,0,0,0,6.815,2.836,9.944,9.944,0,0,1,3.609.373,11.393,11.393,0,0,1,8.083,9.738c.817,7.065-4.374,13.074-10.893,13.074h-32.634a7.61,7.61,0,0,1-7.473-6.179A7.814,7.814,0,0,1,1090.125,2353.5Z" transform="translate(-1085.129 -2337.62)" fill="#ceedff"/>
    </g>
    <g id="Group_89695" data-name="Group 89695" transform="translate(300.567 669.813)">
      <path id="Path_100933" data-name="Path 100933" d="M1361.3,1017.832a3.63,3.63,0,0,0,2.257-2.838,13.094,13.094,0,0,1,12.656-11.124,12.464,12.464,0,0,1,9.393,4.342,7.131,7.131,0,0,0,5.993,2.494,8.735,8.735,0,0,1,3.174.328,10.019,10.019,0,0,1,7.108,8.563c.719,6.214-3.846,11.5-9.579,11.5h-28.7a6.691,6.691,0,0,1-6.571-5.434A6.869,6.869,0,0,1,1361.3,1017.832Z" transform="translate(-1356.911 -1003.87)" fill="#ceedff"/>
    </g>
    <g id="Group_89696" data-name="Group 89696" transform="translate(485.408 795.591)">
      <path id="Path_100934" data-name="Path 100934" d="M3119.395,2215.657a4.123,4.123,0,0,0,2.566-3.227c1.257-7.2,7.223-12.65,14.393-12.65a14.174,14.174,0,0,1,10.681,4.938,8.11,8.11,0,0,0,6.815,2.835,9.945,9.945,0,0,1,3.61.374,11.393,11.393,0,0,1,8.083,9.738c.817,7.065-4.374,13.074-10.893,13.074h-32.635a7.609,7.609,0,0,1-7.472-6.179A7.814,7.814,0,0,1,3119.395,2215.657Z" transform="translate(-3114.399 -2199.78)" fill="#ceedff"/>
    </g>
    <g id="Group_89697" data-name="Group 89697" transform="translate(335.89 720.757)">
      <circle id="Ellipse_38" data-name="Ellipse 38" cx="56.103" cy="56.103" r="56.103" fill="#ceedff"/>
    </g>
    <g id="Group_89699" data-name="Group 89699" transform="translate(335.477 630.55)">
      <g id="Group_89698" data-name="Group 89698" transform="translate(0 0)">
        <path id="Path_100935" data-name="Path 100935" d="M1794.162,668.211a8.764,8.764,0,0,0,5.451-6.853c2.669-15.288,15.34-26.868,30.57-26.868a30.1,30.1,0,0,1,22.687,10.487A17.219,17.219,0,0,0,1867.344,651a21.122,21.122,0,0,1,7.667.793,24.2,24.2,0,0,1,17.166,20.682c1.736,15.007-9.411,27.769-23.255,27.769h-69.191a16.163,16.163,0,0,1-15.872-13.125C1782.263,678.475,1787.074,670.717,1794.162,668.211Z" transform="translate(-1773.591 -634.075)" fill="#fff"/>
        <path id="Path_100936" data-name="Path 100936" d="M1702.613,687.108c-1.594-8.642,3.217-16.4,10.3-18.906a8.762,8.762,0,0,0,5.451-6.854c2.669-15.288,15.34-26.867,30.568-26.867h-9.547c-15.228,0-27.9,11.58-30.57,26.867a8.764,8.764,0,0,1-5.451,6.854c-7.087,2.506-11.9,10.265-10.3,18.906a16.163,16.163,0,0,0,15.873,13.125h9.547A16.164,16.164,0,0,1,1702.613,687.108Z" transform="translate(-1692.348 -634.067)" fill="#0871f7"/>
        <path id="Path_100937" data-name="Path 100937" d="M1714.979,696.724a15.911,15.911,0,0,1-3.416-.413h-6.131a15.682,15.682,0,0,1-15.465-12.785c-1.5-8.1,2.725-15.858,10.034-18.442a9.114,9.114,0,0,0,5.719-7.172c2.685-15.369,15.371-26.525,30.161-26.525h4.769a29.513,29.513,0,0,1,4.78-.413c.14,0,.276.021.417.023l.031-.437h-10c-15.194,0-28.223,11.444-30.977,27.21a8.3,8.3,0,0,1-5.179,6.534c-7.7,2.721-12.144,10.868-10.575,19.371a16.514,16.514,0,0,0,16.28,13.464h35.394l.031-.414h-25.88Z" transform="translate(-1688.84 -630.559)" fill="#2d02a7"/>
        <path id="Path_100938" data-name="Path 100938" d="M1865.386,697.13h-69.193a16.513,16.513,0,0,1-16.28-13.464c-1.569-8.5,2.878-16.65,10.575-19.371l.138.39-.138-.39a8.3,8.3,0,0,0,5.181-6.534c2.751-15.768,15.78-27.21,30.978-27.21a30.315,30.315,0,0,1,23,10.629,16.9,16.9,0,0,0,14.127,5.881,21.615,21.615,0,0,1,7.818.809,24.614,24.614,0,0,1,17.459,21.033,25.958,25.958,0,0,1-6.273,20.278A23.4,23.4,0,0,1,1865.386,697.13Zm-38.739-65.752c-14.794,0-27.481,11.156-30.163,26.525a9.112,9.112,0,0,1-5.721,7.172h0c-7.31,2.585-11.531,10.341-10.035,18.442a15.683,15.683,0,0,0,15.465,12.785h69.193a22.566,22.566,0,0,0,16.773-7.673,25.143,25.143,0,0,0,6.069-19.635,23.785,23.785,0,0,0-16.87-20.33,20.761,20.761,0,0,0-7.515-.779,17.641,17.641,0,0,1-14.819-6.159A29.5,29.5,0,0,0,1826.647,631.378Z" transform="translate(-1770.054 -630.55)" fill="#2d02a7"/>
      </g>
    </g>
    <g id="Group_89701" data-name="Group 89701" transform="translate(426.772 807.921)">
      <g id="Group_89700" data-name="Group 89700" transform="translate(0 0)">
        <path id="Path_100939" data-name="Path 100939" d="M2662.2,2354.681a8.762,8.762,0,0,0,5.451-6.853c2.669-15.288,15.34-26.868,30.569-26.868a30.1,30.1,0,0,1,22.687,10.487,17.22,17.22,0,0,0,14.474,6.021,21.121,21.121,0,0,1,7.667.793,24.194,24.194,0,0,1,17.166,20.682c1.737,15.007-9.411,27.769-23.255,27.769h-69.191a16.163,16.163,0,0,1-15.872-13.125C2650.3,2364.946,2655.116,2357.187,2662.2,2354.681Z" transform="translate(-2641.632 -2320.546)" fill="#fff"/>
        <path id="Path_100940" data-name="Path 100940" d="M2570.662,2373.578c-1.594-8.642,3.217-16.4,10.3-18.906a8.761,8.761,0,0,0,5.451-6.854c2.669-15.288,15.341-26.867,30.57-26.867h-9.546c-15.228,0-27.9,11.58-30.57,26.867a8.763,8.763,0,0,1-5.451,6.854c-7.087,2.506-11.9,10.265-10.3,18.906a16.163,16.163,0,0,0,15.873,13.125h9.547A16.164,16.164,0,0,1,2570.662,2373.578Z" transform="translate(-2560.396 -2320.537)" fill="#0871f7"/>
        <path id="Path_100941" data-name="Path 100941" d="M2583.018,2383.194a15.911,15.911,0,0,1-3.416-.413h-6.131A15.682,15.682,0,0,1,2558.007,2370c-1.5-8.1,2.725-15.858,10.035-18.442a9.114,9.114,0,0,0,5.719-7.172c2.685-15.369,15.371-26.525,30.161-26.525h4.769a29.506,29.506,0,0,1,4.78-.414c.14,0,.276.021.417.023l.031-.437h-10c-15.194,0-28.223,11.444-30.977,27.21a8.3,8.3,0,0,1-5.179,6.534c-7.7,2.721-12.144,10.867-10.575,19.371a16.514,16.514,0,0,0,16.28,13.464h35.394l.031-.415h-25.88Z" transform="translate(-2556.88 -2317.029)" fill="#2d02a7"/>
        <path id="Path_100942" data-name="Path 100942" d="M2733.425,2383.6h-69.192a16.513,16.513,0,0,1-16.28-13.464c-1.569-8.5,2.878-16.65,10.575-19.371l.138.39-.138-.39a8.3,8.3,0,0,0,5.181-6.534c2.751-15.768,15.78-27.21,30.978-27.21a30.315,30.315,0,0,1,23,10.629,16.9,16.9,0,0,0,14.127,5.881,21.625,21.625,0,0,1,7.819.809,24.614,24.614,0,0,1,17.459,21.033,25.959,25.959,0,0,1-6.272,20.279A23.4,23.4,0,0,1,2733.425,2383.6Zm-38.738-65.752c-14.794,0-27.481,11.156-30.163,26.525a9.113,9.113,0,0,1-5.721,7.172h0c-7.31,2.585-11.531,10.341-10.035,18.442a15.682,15.682,0,0,0,15.465,12.785h69.192a22.565,22.565,0,0,0,16.773-7.673,25.142,25.142,0,0,0,6.069-19.635,23.784,23.784,0,0,0-16.87-20.33,20.761,20.761,0,0,0-7.515-.779,17.641,17.641,0,0,1-14.819-6.159A29.5,29.5,0,0,0,2694.687,2317.848Z" transform="translate(-2638.094 -2317.02)" fill="#2d02a7"/>
      </g>
    </g>
    <g id="Group_89703" data-name="Group 89703" transform="translate(195.491 701.403)">
      <g id="Group_89702" data-name="Group 89702" transform="translate(0 0)">
        <path id="Path_100943" data-name="Path 100943" d="M463.147,1341.891a8.763,8.763,0,0,0,5.451-6.853c2.669-15.288,15.341-26.868,30.57-26.868a30.1,30.1,0,0,1,22.687,10.487,17.219,17.219,0,0,0,14.474,6.021,21.117,21.117,0,0,1,7.667.793,24.2,24.2,0,0,1,17.166,20.682c1.736,15.007-9.411,27.769-23.255,27.769H468.715a16.163,16.163,0,0,1-15.872-13.125C451.247,1352.155,456.06,1344.4,463.147,1341.891Z" transform="translate(-442.576 -1307.756)" fill="#fff"/>
        <path id="Path_100944" data-name="Path 100944" d="M371.6,1360.788c-1.594-8.642,3.217-16.4,10.3-18.906a8.762,8.762,0,0,0,5.451-6.854c2.669-15.288,15.341-26.867,30.569-26.867h-9.547c-15.228,0-27.9,11.58-30.57,26.867a8.764,8.764,0,0,1-5.451,6.854c-7.087,2.506-11.9,10.265-10.3,18.906a16.163,16.163,0,0,0,15.873,13.125h9.547A16.164,16.164,0,0,1,371.6,1360.788Z" transform="translate(-361.338 -1307.747)" fill="#0871f7"/>
        <path id="Path_100945" data-name="Path 100945" d="M383.969,1370.4a15.911,15.911,0,0,1-3.416-.413h-6.131a15.682,15.682,0,0,1-15.465-12.785c-1.5-8.1,2.725-15.858,10.035-18.442a9.114,9.114,0,0,0,5.719-7.172c2.685-15.369,15.371-26.525,30.162-26.525h4.769a29.508,29.508,0,0,1,4.78-.413c.14,0,.276.021.416.023l.032-.437h-10c-15.194,0-28.223,11.444-30.977,27.21a8.3,8.3,0,0,1-5.179,6.534c-7.7,2.721-12.144,10.867-10.575,19.371a16.514,16.514,0,0,0,16.28,13.464h35.394l.032-.414h-25.88Z" transform="translate(-357.83 -1304.239)" fill="#2d02a7"/>
        <path id="Path_100946" data-name="Path 100946" d="M534.376,1370.81H465.183a16.513,16.513,0,0,1-16.28-13.464c-1.569-8.5,2.878-16.65,10.575-19.371l.138.39-.138-.39a8.3,8.3,0,0,0,5.181-6.534c2.751-15.768,15.78-27.21,30.978-27.21a30.312,30.312,0,0,1,23,10.629,16.9,16.9,0,0,0,14.127,5.881,21.614,21.614,0,0,1,7.819.809,24.614,24.614,0,0,1,17.459,21.032,25.957,25.957,0,0,1-6.273,20.278A23.393,23.393,0,0,1,534.376,1370.81Zm-38.738-65.752c-14.794,0-27.481,11.156-30.163,26.525a9.112,9.112,0,0,1-5.721,7.172h0c-7.31,2.585-11.531,10.341-10.035,18.442a15.682,15.682,0,0,0,15.465,12.785h69.192a22.566,22.566,0,0,0,16.773-7.673,25.143,25.143,0,0,0,6.068-19.635,23.785,23.785,0,0,0-16.87-20.33,20.762,20.762,0,0,0-7.515-.779,17.641,17.641,0,0,1-14.819-6.159A29.5,29.5,0,0,0,495.637,1305.058Z" transform="translate(-439.045 -1304.23)" fill="#2d02a7"/>
      </g>
    </g>
    <g id="Group_89720" data-name="Group 89720" transform="translate(355.985 730.793)">
      <path id="Path_100947" data-name="Path 100947" d="M2391.937,1864.79h-3.251c-4.613,0-8.365,4.665-8.365,10.4s3.752,10.4,8.365,10.4h3.251c4.613,0,8.365-4.664,8.365-10.4S2396.549,1864.79,2391.937,1864.79Z" transform="translate(-2328.103 -1835.224)" fill="#2d02a7"/>
      <g id="Group_89704" data-name="Group 89704" transform="translate(5.781 9.214)">
        <circle id="Ellipse_39" data-name="Ellipse 39" cx="29.813" cy="29.813" r="29.813" transform="translate(0.413 0.413)" fill="#fff"/>
        <path id="Path_100948" data-name="Path 100948" d="M1969.026,1731.736a30.228,30.228,0,1,1,30.228-30.228A30.262,30.262,0,0,1,1969.026,1731.736Zm0-59.627a29.4,29.4,0,1,0,29.4,29.4A29.432,29.432,0,0,0,1969.026,1672.109Z" transform="translate(-1938.8 -1671.28)" fill="#2d02a7"/>
      </g>
      <g id="Group_89705" data-name="Group 89705" transform="translate(34.518 34.528)">
        <circle id="Ellipse_40" data-name="Ellipse 40" cx="2.484" cy="2.484" r="2.484" fill="#2d02a7"/>
      </g>
      <g id="Group_89706" data-name="Group 89706" transform="translate(52.527 34.528)">
        <circle id="Ellipse_41" data-name="Ellipse 41" cx="2.484" cy="2.484" r="2.484" fill="#2d02a7"/>
      </g>
      <g id="Group_89709" data-name="Group 89709" transform="translate(35.595 46.477)">
        <g id="Group_89707" data-name="Group 89707" transform="translate(0.413 0.414)">
          <path id="Path_100949" data-name="Path 100949" d="M2230.071,2029.572a36.876,36.876,0,0,0,12.123,0,3.233,3.233,0,0,1,3.272,5.025,11.393,11.393,0,0,1-18.668,0A3.233,3.233,0,0,1,2230.071,2029.572Z" transform="translate(-2226.197 -2029.519)" fill="#2d02a7"/>
        </g>
        <path id="Path_100950" data-name="Path 100950" d="M2255.037,2092.67h-4.517a10.97,10.97,0,0,0,7.378,2.883c.111,0,.214-.036.324-.039A3.232,3.232,0,0,0,2255.037,2092.67Z" transform="translate(-2247.548 -2085.615)" fill="#ff0068"/>
        <g id="Group_89708" data-name="Group 89708">
          <path id="Path_100951" data-name="Path 100951" d="M2232.617,2036.351a11.828,11.828,0,0,1-9.676-5.04,3.558,3.558,0,0,1-.107-4.011,3.67,3.67,0,0,1,3.791-1.656h0a36.873,36.873,0,0,0,11.982,0,3.667,3.667,0,0,1,3.792,1.656,3.56,3.56,0,0,1-.11,4.014A11.824,11.824,0,0,1,2232.617,2036.351Zm-6.664-9.938a2.829,2.829,0,0,0-2.42,1.329,2.749,2.749,0,0,0,.087,3.1,10.978,10.978,0,0,0,17.99,0,2.748,2.748,0,0,0,.09-3.1,2.875,2.875,0,0,0-2.95-1.284,37.513,37.513,0,0,1-12.267,0h0A3.388,3.388,0,0,0,2225.954,2026.413Z" transform="translate(-2222.267 -2025.585)" fill="#2d02a7"/>
        </g>
        <path id="Path_100952" data-name="Path 100952" d="M2247.217,2034.92v-1.413a3.04,3.04,0,0,0-.921.008,37.513,37.513,0,0,1-12.267,0,3.258,3.258,0,0,0-.53-.045,2.829,2.829,0,0,0-2.42,1.329,2.728,2.728,0,0,0-.379,1.1h15.542A.976.976,0,0,0,2247.217,2034.92Z" transform="translate(-2229.813 -2032.641)" fill="#fff"/>
      </g>
      <g id="Group_89710" data-name="Group 89710" transform="translate(8.859 3.518)">
        <path id="Path_100953" data-name="Path 100953" d="M1995.352,1630.674h0a15.91,15.91,0,0,0-15.91,15.91h0a7.474,7.474,0,0,1-7.474,7.473h-3.909l1.832-20.688,7.655-11.293,15.177-4.945,4.743,6.165Z" transform="translate(-1968.06 -1617.13)" fill="#25beef"/>
      </g>
      <g id="Group_89711" data-name="Group 89711" transform="translate(6.289 2.76)">
        <path id="Path_100954" data-name="Path 100954" d="M2034.98,1636.249a29.514,29.514,0,0,1,2.1,5.021h.756a27.365,27.365,0,0,0-27.376-27.41,28.439,28.439,0,0,0-3.03.177,27.378,27.378,0,0,0-24.345,27.234h2.29a25.1,25.1,0,0,1,25.085-25.086,24.735,24.735,0,0,1,7.081,1.022A25.13,25.13,0,0,1,2034.98,1636.249Z" transform="translate(-1978.931 -1613.446)" fill="#0871f7"/>
        <path id="Path_100955" data-name="Path 100955" d="M1975.156,1609.94h-3.734a7.957,7.957,0,0,0-.919.034h-.514a27.793,27.793,0,0,0-26.358,27.79.415.415,0,0,0,.414.414h3.737a.414.414,0,0,0,.414-.414,26.885,26.885,0,0,1,23.974-26.822,27.846,27.846,0,0,1,2.986-.174.414.414,0,1,0,0-.828Z" transform="translate(-1943.63 -1609.938)" fill="#2d02a7"/>
        <path id="Path_100956" data-name="Path 100956" d="M2325.292,1662.531a25.659,25.659,0,0,0-17.994-20.77.415.415,0,0,0-.314.762,27,27,0,0,1,9.731,9.134A29.859,29.859,0,0,1,2325.292,1662.531Z" transform="translate(-2268.574 -1638.397)" fill="#2d02a7"/>
        <path id="Path_100957" data-name="Path 100957" d="M2030.654,1631.2a29.576,29.576,0,0,1,1.469,2.806,25.641,25.641,0,0,0-17.969-20.719,25.2,25.2,0,0,0-7.2-1.04,25.532,25.532,0,0,0-25.495,25.086H1980a26.883,26.883,0,0,1,23.971-26.409,27.835,27.835,0,0,1,2.986-.173,27.007,27.007,0,0,1,26.957,26.581h-.482c.092.279.205.546.288.828h1.026v-.414a27.836,27.836,0,0,0-27.788-27.823,29.051,29.051,0,0,0-3.076.177,27.716,27.716,0,0,0-24.711,27.648v.414h3.118v-.414a24.7,24.7,0,0,1,24.669-24.672,24.391,24.391,0,0,1,6.965,1.007A24.791,24.791,0,0,1,2030.654,1631.2Z" transform="translate(-1975.432 -1609.92)" fill="#2d02a7"/>
      </g>
      <g id="Group_89712" data-name="Group 89712" transform="translate(50.829 13.33)">
        <path id="Path_100958" data-name="Path 100958" d="M2381.39,1744.764l-.8-.226a29.449,29.449,0,0,0-13.474-33.4l.42-.715a30.28,30.28,0,0,1,13.849,34.344Z" transform="translate(-2367.12 -1710.42)" fill="#2d02a7"/>
      </g>
      <g id="Group_89713" data-name="Group 89713" transform="translate(47.491 3.757)">
        <circle id="Ellipse_42" data-name="Ellipse 42" cx="7.556" cy="7.556" r="7.556" transform="translate(0.413 0.413)" fill="#25beef"/>
        <path id="Path_100959" data-name="Path 100959" d="M2343.348,1635.338a7.969,7.969,0,1,1,7.971-7.969A7.978,7.978,0,0,1,2343.348,1635.338Zm0-15.11a7.141,7.141,0,1,0,7.142,7.141A7.149,7.149,0,0,0,2343.348,1620.228Z" transform="translate(-2335.38 -1619.4)" fill="#2d02a7"/>
      </g>
      <g id="Group_89714" data-name="Group 89714" transform="translate(19.669)">
        <path id="Path_100960" data-name="Path 100960" d="M2211.212,1604.256h10.539a8.323,8.323,0,0,0,1.567-16.5c-3.645-.666-7.223.9-8.665,3.849-.92,1.881-4.193,1.31-5.363,1.341Z" transform="translate(-2194.73 -1587.193)" fill="#25beef"/>
        <path id="Path_100961" data-name="Path 100961" d="M2106.406,1590.538a8.69,8.69,0,0,0-6.894-6.7c-3.846-.7-7.6.974-9.113,4.077-.634,1.3-2.86,1.2-4.176,1.131-.331-.016-.6-.033-.825-.023l.026.828c.187-.005.457.008.76.023,1.51.072,4.083.2,4.959-1.594,1.359-2.769,4.727-4.273,8.22-3.624a7.857,7.857,0,0,1,6.234,6.057,7.967,7.967,0,0,1-1.588,6.693,7.874,7.874,0,0,1-6.14,2.925h-10.536a16.343,16.343,0,0,0-16.324,16.324,7.042,7.042,0,0,1-.159,1.47,11.371,11.371,0,0,1,.505,1.154,7.8,7.8,0,0,0,.483-2.624,15.514,15.514,0,0,1,15.5-15.5h10.536a8.71,8.71,0,0,0,6.784-3.23A8.8,8.8,0,0,0,2106.406,1590.538Z" transform="translate(-2070.85 -1583.676)" fill="#2d02a7"/>
      </g>
      <g id="Group_89718" data-name="Group 89718" transform="translate(7.949 29.566)">
        <g id="Group_89716" data-name="Group 89716" transform="translate(34.873 33.213)">
          <g id="Group_89715" data-name="Group 89715">
            <circle id="Ellipse_43" data-name="Ellipse 43" cx="4.481" cy="4.481" r="4.481" transform="translate(0.415 0.413)" fill="#0871f7"/>
            <path id="Path_100962" data-name="Path 100962" d="M2295.885,2190.369a4.895,4.895,0,1,1,4.9-4.895A4.9,4.9,0,0,1,2295.885,2190.369Zm0-8.961a4.066,4.066,0,1,0,4.069,4.066A4.071,4.071,0,0,0,2295.885,2181.408Z" transform="translate(-2290.99 -2180.58)" fill="#2d02a7"/>
          </g>
          <path id="Path_100963" data-name="Path 100963" d="M2295.885,2189.541c-.563,0-1.378-1.585-1.378-4.066s.815-4.066,1.378-4.066a.414.414,0,0,0,0-.829,4.895,4.895,0,1,0,0,9.79.414.414,0,0,0,0-.829Z" transform="translate(-2290.99 -2180.58)" fill="#2d02a7"/>
        </g>
        <g id="Group_89717" data-name="Group 89717" transform="translate(4.646 19.776)">
          <path id="Path_100964" data-name="Path 100964" d="M2035.133,2072.192a.964.964,0,0,1-.1-.006l-6.043-.718a32.937,32.937,0,0,1-25.31-17.427.829.829,0,1,1,1.468-.77,31.268,31.268,0,0,0,24.035,16.553l6.043.719a.828.828,0,0,1-.1,1.65Z" transform="translate(-2003.589 -2052.826)" fill="#2d02a7"/>
        </g>
        <path id="Path_100965" data-name="Path 100965" d="M1967.606,1868.73h-4.246V1888.7h4.246c4.391,0,7.95-4.47,7.95-9.984S1972,1868.73,1967.606,1868.73Z" transform="translate(-1962.944 -1868.316)" fill="#fff"/>
        <path id="Path_100966" data-name="Path 100966" d="M1964.072,1864.79h-4.248a.415.415,0,0,0-.414.415v19.969a.414.414,0,0,0,.414.414h4.248c4.61,0,8.362-4.664,8.362-10.4S1968.682,1864.79,1964.072,1864.79Zm0,19.969h-3.834v-19.141h3.834c4.153,0,7.535,4.293,7.535,9.569S1968.227,1884.759,1964.072,1884.759Z" transform="translate(-1959.41 -1864.79)" fill="#2d02a7"/>
      </g>
      <g id="Group_89719" data-name="Group 89719" transform="translate(0 29.565)">
        <ellipse id="Ellipse_44" data-name="Ellipse 44" cx="7.95" cy="9.984" rx="7.95" ry="9.984" transform="translate(0.414 0.414)" fill="#0871f7"/>
        <path id="Path_100967" data-name="Path 100967" d="M1892.194,1885.578c-4.612,0-8.365-4.665-8.365-10.4s3.753-10.4,8.365-10.4,8.365,4.664,8.365,10.4S1896.807,1885.578,1892.194,1885.578Zm0-19.969c-4.155,0-7.536,4.293-7.536,9.569s3.38,9.572,7.536,9.572,7.538-4.293,7.538-9.572S1896.351,1865.609,1892.194,1865.609Z" transform="translate(-1883.83 -1864.78)" fill="#2d02a7"/>
      </g>
      <path id="Path_100968" data-name="Path 100968" d="M1889.383,1898.37c-3.062,0-5.553,3.08-5.553,6.865s2.49,6.868,5.553,6.868,5.551-3.079,5.551-6.868S1892.444,1898.37,1889.383,1898.37Z" transform="translate(-1883.83 -1865.272)" fill="#2d02a7"/>
    </g>
    <g id="Group_89721" data-name="Group 89721" transform="translate(353.42 806.26)">
      <path id="Path_100969" data-name="Path 100969" d="M1941.609,2316.6a55.863,55.863,0,0,1-75.809,0,68.4,68.4,0,0,1,75.809,0Z" transform="translate(-1865.131 -2304.728)" fill="#fff"/>
      <path id="Path_100970" data-name="Path 100970" d="M1898.012,2328.335a56.332,56.332,0,0,1-38.184-14.936l-.388-.355.438-.294a68.834,68.834,0,0,1,76.271,0l.44.294-.388.355A56.338,56.338,0,0,1,1898.012,2328.335Zm-37.231-15.188a55.448,55.448,0,0,0,74.466,0,68,68,0,0,0-74.466,0Z" transform="translate(-1859.44 -2301.22)" fill="#2d02a7"/>
    </g>
    <g id="Group_89722" data-name="Group 89722" transform="translate(176.41 751.583)">
      <path id="Path_100971" data-name="Path 100971" d="M271.956,1861.709a16.966,16.966,0,0,1-16.947-16.948v-3.914a16.137,16.137,0,0,0-16.12-16.117H198.1a21.69,21.69,0,1,1,0-43.38h.406v.828H198.1a20.862,20.862,0,0,0,0,41.724h40.789a16.965,16.965,0,0,1,16.948,16.944v3.915a16.118,16.118,0,1,0,32.236,0,37.331,37.331,0,0,1,37.288-37.286h7.216v.828H325.36a36.5,36.5,0,0,0-36.459,36.458A16.966,16.966,0,0,1,271.956,1861.709Z" transform="translate(-176.41 -1781.35)" fill="#0871f7"/>
    </g>
    <g id="Group_89726" data-name="Group 89726" transform="translate(444.424 771.532)">
      <g id="Group_89723" data-name="Group 89723" transform="translate(0 0)">
        <circle id="Ellipse_45" data-name="Ellipse 45" cx="3.256" cy="3.256" r="3.256" transform="translate(0.415 0.414)" fill="#fff"/>
        <path id="Path_100972" data-name="Path 100972" d="M2728.391,1978.37a3.67,3.67,0,1,1,3.671-3.668A3.675,3.675,0,0,1,2728.391,1978.37Zm0-6.512a2.842,2.842,0,1,0,2.844,2.844A2.846,2.846,0,0,0,2728.391,1971.858Z" transform="translate(-2724.72 -1971.03)" fill="#2d02a7"/>
      </g>
      <g id="Group_89725" data-name="Group 89725" transform="translate(0 0)">
        <g id="Group_89724" data-name="Group 89724">
          <path id="Path_100973" data-name="Path 100973" d="M2731.926,1981.482c-.72,0-1.3-1.458-1.3-3.256s.584-3.256,1.3-3.256a3.256,3.256,0,0,0,0,6.512Z" transform="translate(-2728.255 -1974.556)" fill="#0871f7"/>
          <path id="Path_100974" data-name="Path 100974" d="M2728.391,1978.37a3.67,3.67,0,1,1,0-7.34v.828c-.313,0-.89,1.08-.89,2.844s.576,2.841.89,2.841Zm-1.271-6.212a2.84,2.84,0,0,0,0,5.083,7.464,7.464,0,0,1,0-5.083Z" transform="translate(-2724.72 -1971.03)" fill="#2d02a7"/>
        </g>
      </g>
    </g>
    <g id="Group_89730" data-name="Group 89730" transform="translate(332.041 774.634)">
      <g id="Group_89727" data-name="Group 89727" transform="translate(0 0)">
        <circle id="Ellipse_46" data-name="Ellipse 46" cx="3.256" cy="3.256" r="3.256" transform="translate(0.415 0.415)" fill="#fff"/>
        <path id="Path_100975" data-name="Path 100975" d="M1659.841,2007.863a3.672,3.672,0,1,1,3.671-3.672A3.676,3.676,0,0,1,1659.841,2007.863Zm0-6.514a2.844,2.844,0,1,0,2.842,2.844A2.847,2.847,0,0,0,1659.841,2001.349Z" transform="translate(-1656.17 -2000.52)" fill="#2d02a7"/>
      </g>
      <g id="Group_89729" data-name="Group 89729" transform="translate(0 0)">
        <g id="Group_89728" data-name="Group 89728">
          <path id="Path_100976" data-name="Path 100976" d="M1663.376,2010.982c-.72,0-1.3-1.458-1.3-3.256s.584-3.256,1.3-3.256a3.256,3.256,0,1,0,0,6.512Z" transform="translate(-1659.704 -2004.055)" fill="#0871f7"/>
          <path id="Path_100977" data-name="Path 100977" d="M1659.841,2007.863a3.672,3.672,0,1,1,0-7.343v.828c-.313,0-.891,1.08-.891,2.844s.578,2.844.891,2.844Zm-1.273-6.214a2.844,2.844,0,0,0,0,5.086,7.475,7.475,0,0,1,0-5.086Z" transform="translate(-1656.17 -2000.52)" fill="#2d02a7"/>
        </g>
      </g>
    </g>
    <g id="Group_89731" data-name="Group 89731" transform="translate(359.114 829.768)">
      <path id="Path_100978" data-name="Path 100978" d="M1940.027,2593.738a26.478,26.478,0,0,1-26.447-26.449,91.389,91.389,0,0,1,10.554-42.549l.731.388a90.547,90.547,0,0,0-10.457,42.161,25.62,25.62,0,1,0,51.24,0,14.779,14.779,0,0,1,14.764-14.764h6.519v.828h-6.519a13.954,13.954,0,0,0-13.937,13.937A26.48,26.48,0,0,1,1940.027,2593.738Z" transform="translate(-1913.58 -2524.74)" fill="#0871f7"/>
    </g>
    <g id="Group_89732" data-name="Group 89732" transform="translate(466.105 827.433)">
      <path id="Path_100979" data-name="Path 100979" d="M2934.183,2502.54a3.312,3.312,0,0,0-3.313,3.313v25.688l5.821-5.027a6.626,6.626,0,0,1,4.33-1.612h20.855a3.312,3.312,0,0,0,3.313-3.313v-15.737a3.313,3.313,0,0,0-3.313-3.313Z" transform="translate(-2930.87 -2502.54)" fill="#ceedff"/>
    </g>
    <g id="Group_89733" data-name="Group 89733" transform="translate(234.975 795.69)">
      <path id="Path_100980" data-name="Path 100980" d="M758.919,2200.936a12.086,12.086,0,0,0-12.6,5.6,4.535,4.535,0,0,1-4.264,2.3,7.808,7.808,0,0,0-3.469.458,8.052,8.052,0,0,0,2.728,15.635h15.323a12.1,12.1,0,0,0,2.28-23.984Z" transform="translate(-733.252 -2200.728)" fill="#ceedff"/>
    </g>
    <g id="Group_89738" data-name="Group 89738" transform="translate(473.702 834.348)">
      <g id="Group_89734" data-name="Group 89734" transform="translate(0)">
        <path id="Path_100981" data-name="Path 100981" d="M3006.413,2568.29a3.313,3.313,0,0,0-3.313,3.313v25.688l5.821-5.027a6.627,6.627,0,0,1,4.33-1.611h20.855a3.313,3.313,0,0,0,3.313-3.313V2571.6a3.313,3.313,0,0,0-3.313-3.313Z" transform="translate(-3003.1 -2568.29)" fill="#25beef"/>
      </g>
      <g id="Group_89735" data-name="Group 89735" transform="translate(14.793 8.697)">
        <circle id="Ellipse_47" data-name="Ellipse 47" cx="2.368" cy="2.368" r="2.368" fill="#fff"/>
      </g>
      <g id="Group_89736" data-name="Group 89736" transform="translate(23.334 8.697)">
        <circle id="Ellipse_48" data-name="Ellipse 48" cx="2.368" cy="2.368" r="2.368" fill="#fff"/>
      </g>
      <g id="Group_89737" data-name="Group 89737" transform="translate(6.25 8.697)">
        <circle id="Ellipse_49" data-name="Ellipse 49" cx="2.368" cy="2.368" r="2.368" fill="#fff"/>
      </g>
    </g>
    <g id="Group_89748" data-name="Group 89748" transform="translate(381.362 646.519)">
      <g id="Group_89739" data-name="Group 89739" transform="translate(0 13.983)">
        <path id="Path_100982" data-name="Path 100982" d="M2160.839,915.34l-17.859,13.983L2125.12,915.34Z" transform="translate(-2125.12 -915.34)" fill="#2d02a7"/>
      </g>
      <g id="Group_89740" data-name="Group 89740" transform="translate(0 0)">
        <path id="Path_100983" data-name="Path 100983" d="M2160.839,796.373l-17.859-13.983-17.859,13.983Z" transform="translate(-2125.12 -782.39)" fill="#2d02a7"/>
      </g>
      <g id="Group_89741" data-name="Group 89741" transform="translate(3.863 3.6)">
        <path id="Path_100984" data-name="Path 100984" d="M2175.846,840.986l-14-10.959v-7.717l7.1-5.691h20.893v13.407Z" transform="translate(-2161.85 -816.62)" fill="#fff"/>
      </g>
      <g id="Group_89742" data-name="Group 89742" transform="translate(3.863 3.6)">
        <path id="Path_100985" data-name="Path 100985" d="M2168.95,822.311h-7.1l7.1-5.691Z" transform="translate(-2161.85 -816.62)" fill="#febb24"/>
      </g>
      <g id="Group_89743" data-name="Group 89743" transform="translate(9.293 13.204)">
        <rect id="Rectangle_19384" data-name="Rectangle 19384" width="17.133" height="1.506" transform="translate(17.133 1.506) rotate(180)" fill="#ceedff"/>
      </g>
      <g id="Group_89744" data-name="Group 89744" transform="translate(9.293 16.566)">
        <rect id="Rectangle_19385" data-name="Rectangle 19385" width="17.133" height="1.506" transform="translate(17.133 1.506) rotate(180)" fill="#ceedff"/>
      </g>
      <g id="Group_89745" data-name="Group 89745" transform="translate(9.293 19.93)">
        <rect id="Rectangle_19386" data-name="Rectangle 19386" width="17.133" height="1.506" transform="translate(17.133 1.506) rotate(180)" fill="#ceedff"/>
      </g>
      <g id="Group_89746" data-name="Group 89746" transform="translate(9.293 23.293)">
        <rect id="Rectangle_19387" data-name="Rectangle 19387" width="17.133" height="1.506" transform="translate(17.133 1.506) rotate(180)" fill="#ceedff"/>
      </g>
      <g id="Group_89747" data-name="Group 89747" transform="translate(0 13.983)">
        <path id="Path_100986" data-name="Path 100986" d="M2142.979,929.323,2125.12,915.34v26.581h35.719V915.34Z" transform="translate(-2125.12 -915.34)" fill="#febb24"/>
      </g>
    </g>
    <g id="Group_89749" data-name="Group 89749" transform="translate(481.361 659.458)">
      <path id="Path_100987" data-name="Path 100987" d="M3101.589,905.616a12.085,12.085,0,0,0-12.6,5.6,4.535,4.535,0,0,1-4.264,2.3,7.807,7.807,0,0,0-3.468.458,8.053,8.053,0,0,0,2.728,15.636h15.323a12.1,12.1,0,0,0,2.28-23.986Z" transform="translate(-3075.922 -905.408)" fill="#ceedff"/>
    </g>
    <g id="Group_89750" data-name="Group 89750" transform="translate(243.678 723.965)">
      <path id="Path_100988" data-name="Path 100988" d="M845.422,1541.641h0a6.745,6.745,0,0,1-6.534,6.529q-.484.01-.973,0a22.575,22.575,0,0,1-21.908-21.911q-.011-.487,0-.971a6.746,6.746,0,0,1,6.529-6.535h0a1.4,1.4,0,0,1,1.427,1.122l1.557,7.7a1.4,1.4,0,0,1-.735,1.524l-.959.491a1.408,1.408,0,0,0-.682,1.732,16.357,16.357,0,0,0,9.705,9.711,1.407,1.407,0,0,0,1.732-.678l.5-.964a1.4,1.4,0,0,1,1.523-.732l7.7,1.557A1.4,1.4,0,0,1,845.422,1541.641Z" transform="translate(-816.001 -1518.75)" fill="#8edb53"/>
    </g>
    <g id="Group_89754" data-name="Group 89754" transform="translate(257.453 721.676)">
      <g id="Group_89751" data-name="Group 89751" transform="translate(0.001 9.303)">
        <path id="Path_100989" data-name="Path 100989" d="M954.795,1594.073a.827.827,0,0,1-.828-.828,6.158,6.158,0,0,0-6.149-6.15.828.828,0,1,1,0-1.655,7.815,7.815,0,0,1,7.806,7.806A.828.828,0,0,1,954.795,1594.073Z" transform="translate(-946.99 -1585.44)" fill="#d4edfa"/>
      </g>
      <g id="Group_89752" data-name="Group 89752" transform="translate(0 4.652)">
        <path id="Path_100990" data-name="Path 100990" d="M959.436,1554.5a.827.827,0,0,1-.828-.828,10.812,10.812,0,0,0-10.8-10.8.828.828,0,1,1,0-1.655,12.471,12.471,0,0,1,12.456,12.457A.826.826,0,0,1,959.436,1554.5Z" transform="translate(-946.98 -1541.22)" fill="#e1f2fb"/>
      </g>
      <g id="Group_89753" data-name="Group 89753">
        <path id="Path_100991" data-name="Path 100991" d="M964.087,1514.925a.827.827,0,0,1-.828-.828,15.468,15.468,0,0,0-15.452-15.452.828.828,0,1,1,0-1.655,17.128,17.128,0,0,1,17.109,17.108A.827.827,0,0,1,964.087,1514.925Z" transform="translate(-946.98 -1496.99)" fill="#eef8fd"/>
      </g>
    </g>
    <g id="Group_89758" data-name="Group 89758" transform="translate(367.668 824.427)">
      <g id="Group_89755" data-name="Group 89755" transform="translate(0 0)">
        <circle id="Ellipse_50" data-name="Ellipse 50" cx="3.256" cy="3.256" r="3.256" transform="translate(0.413 0.415)" fill="#fff"/>
        <path id="Path_100992" data-name="Path 100992" d="M1998.591,2481.3a3.672,3.672,0,1,1,3.668-3.672A3.676,3.676,0,0,1,1998.591,2481.3Zm0-6.516a2.844,2.844,0,1,0,2.841,2.844A2.846,2.846,0,0,0,1998.591,2474.788Z" transform="translate(-1994.92 -2473.96)" fill="#2d02a7"/>
      </g>
      <g id="Group_89757" data-name="Group 89757" transform="translate(0 0)">
        <g id="Group_89756" data-name="Group 89756">
          <path id="Path_100993" data-name="Path 100993" d="M2002.106,2484.422c-.72,0-1.3-1.458-1.3-3.256s.584-3.256,1.3-3.256a3.256,3.256,0,0,0,0,6.512Z" transform="translate(-1998.437 -2477.495)" fill="#0871f7"/>
          <path id="Path_100994" data-name="Path 100994" d="M1998.591,2481.3a3.672,3.672,0,1,1,0-7.343v.827c-.313,0-.893,1.081-.893,2.844s.579,2.844.893,2.844Zm-1.275-6.215a2.845,2.845,0,0,0,0,5.086,7.475,7.475,0,0,1,0-5.086Z" transform="translate(-1994.92 -2473.96)" fill="#2d02a7"/>
        </g>
      </g>
    </g>
  </g>
</svg>
