<svg xmlns="http://www.w3.org/2000/svg" width="145.337" height="38.431" viewBox="0 0 145.337 38.431">
  <path id="Icon_payment-bitcoin" data-name="Icon payment-bitcoin" d="M41.2,44.964a17.934,17.934,0,0,1-8.591,11.7,18.726,18.726,0,0,1-14.44,2.194A17.9,17.9,0,0,1,6.11,50.08,19.229,19.229,0,0,1,3.917,35.458a17.784,17.784,0,0,1,8.775-11.7,19.3,19.3,0,0,1,14.622-2.194,17.824,17.824,0,0,1,11.7,8.774A19.283,19.283,0,0,1,41.2,44.964ZM26.947,32.535l.731-3.29c-3.17,2.685-3.784,2.559-5.849-1.462l-.731,3.29a2.1,2.1,0,0,1-1.462-.366l-2.925-.731-.366,2.559,1.462.366c.485,0,.731.366.731,1.1l-.731,4.022L16.347,43.5c0,.731-.366.857-1.1.366L13.788,43.5l-1.1,2.559,2.925.731a2.142,2.142,0,0,1,1.462.366l-1.1,3.29C19.51,47.769,20,47.889,22.2,51.91l.731-3.29q5.841,1.1,7.312-2.925c.969-2.194.366-3.9-1.828-5.118,1.7-.485,2.559-1.463,2.559-2.925.236-2.194-1.1-3.894-4.023-5.116ZM19.635,44.964l2.562-10.2c.806.135,4.417,3.622,3.777,6.171S21.384,45.4,19.635,44.964ZM58.568,32.717a2.921,2.921,0,0,1-.913.182,5.589,5.589,0,0,0-2.194.731L58.752,21.2l-7.677,1.1L42.666,57.392a4.845,4.845,0,0,0,2.925,1.1,11.632,11.632,0,0,1,1.462.182,2.892,2.892,0,0,1,1.462.547H52.9a19.687,19.687,0,0,0,6.215-1.1,16.754,16.754,0,0,0,5.118-3.656q2.922-3.65,3.29-5.118a15.738,15.738,0,0,0,1.1-6.215,14.971,14.971,0,0,0-.366-4.022,6.44,6.44,0,0,0-1.828-3.29,4.373,4.373,0,0,0-2.559-2.194,9.735,9.735,0,0,0-4.387-1.1,3.294,3.294,0,0,0-.915.188ZM52.537,53.37H51.075L54,39.845l2.194-1.1h1.828q2.193,0,2.559,1.1a7.066,7.066,0,0,1,1.1,3.656,12.08,12.08,0,0,1-.731,3.656,16.413,16.413,0,0,1-1.828,3.29,17.567,17.567,0,0,1-2.559,2.194,11.466,11.466,0,0,1-3.29.731h-.731ZM82.512,33.265H75.2l-5.85,25.59h7.312Zm-.731-3.654a8.51,8.51,0,0,0,1.828-1.1,5.721,5.721,0,0,0,1.1-1.462,2.848,2.848,0,0,1,.182-.913,3.055,3.055,0,0,0,.182-.913A3.491,3.491,0,0,0,83.607,22.3a5.927,5.927,0,0,0-2.559-.731,2.9,2.9,0,0,0-1.828.366,1.8,1.8,0,0,0-.913.366,5.966,5.966,0,0,0-.913.731,5.57,5.57,0,0,0-1.1,1.462,3.044,3.044,0,0,1-.182.913,2.858,2.858,0,0,0-.182.913A3.465,3.465,0,0,0,77.4,29.245a5.817,5.817,0,0,0,2.559.731,2.9,2.9,0,0,0,1.826-.366Zm2.194,17.181a24.94,24.94,0,0,0-.366,4.753,7.723,7.723,0,0,0,.366,4.022A5.5,5.5,0,0,0,86.9,58.125c.969.731,2.679,1.1,5.118,1.1a14.652,14.652,0,0,0,4.022-.366,10.6,10.6,0,0,0,1.462-.182,2.787,2.787,0,0,0,1.462-.547l-.366-5.85a5.563,5.563,0,0,1-2.194.731,5.1,5.1,0,0,1-2.194.366H92.749l-.731-.366-1.1-1.1A3.076,3.076,0,0,0,90.739,51a2.829,2.829,0,0,1-.182-.913,4.712,4.712,0,0,1,.182-1.1,5.065,5.065,0,0,0,.182-1.1l2.194-8.774h8.043l1.462-5.85H94.577L96.4,25.591l-7.677,1.1-4.753,20.1Zm19.009,5.848a12.39,12.39,0,0,0,1.828,3.656,34.873,34.873,0,0,0,3.656,2.194c.731.491,2.431.731,5.118.731a12.789,12.789,0,0,0,3.656-.366,11.473,11.473,0,0,0,3.29-.731l-.731-5.85a1.488,1.488,0,0,1-1.1.366,1.487,1.487,0,0,0-1.1.366,11.463,11.463,0,0,0-1.462.182,10.6,10.6,0,0,1-1.462.182,4.944,4.944,0,0,1-3.656-1.462,6.556,6.556,0,0,1-1.1-4.022,12.8,12.8,0,0,1,1.828-6.946,7.9,7.9,0,0,1,5.85-2.194h2.559a6.2,6.2,0,0,0,1.828.731l2.559-5.484a29.219,29.219,0,0,0-2.925-1.1,14.882,14.882,0,0,0-4.022-.366,17.551,17.551,0,0,0-6.215,1.1,28.18,28.18,0,0,0-5.119,3.656A19.083,19.083,0,0,0,103.35,42.4a17.572,17.572,0,0,0-1.1,6.215,12.616,12.616,0,0,0,.731,4.023Zm37.653,5.118a16.068,16.068,0,0,0,4.387-3.656,12.5,12.5,0,0,0,2.559-5.118,18.777,18.777,0,0,0,1.1-5.85,20.193,20.193,0,0,0-.731-4.387,16.423,16.423,0,0,0-1.828-3.29,4.522,4.522,0,0,0-3.29-2.194,13.856,13.856,0,0,0-4.387-.731,12.366,12.366,0,0,0-6.215,1.462q-3.656,2.931-4.387,3.656a24.494,24.494,0,0,0-2.925,5.484,30.982,30.982,0,0,0-.731,5.85,7.726,7.726,0,0,0,.731,4.022,5.8,5.8,0,0,0,1.828,3.29,6.592,6.592,0,0,0,2.925,2.194,10.09,10.09,0,0,0,4.387.731,13.146,13.146,0,0,0,6.581-1.462Zm0-17.912a12.866,12.866,0,0,1,.731,4.022A9.672,9.672,0,0,1,141,46.792l-1.1,3.29-2.194,2.194a3.956,3.956,0,0,1-2.925,1.1,2.609,2.609,0,0,1-2.559-1.462c-.493-.485-.731-1.7-.731-3.656a11.022,11.022,0,0,1,.366-3.29,8.846,8.846,0,0,1,1.1-2.925,32.955,32.955,0,0,1,2.194-2.559,3.565,3.565,0,0,1,2.559-.731C139.173,38.749,140.143,39.114,140.636,39.845Z" transform="translate(-3.342 -20.997)" fill="#fff"/>
</svg>
