<svg xmlns="http://www.w3.org/2000/svg" width="31.31" height="31.311" viewBox="0 0 31.31 31.311">
  <g id="Group_93368" data-name="Group 93368" transform="translate(3476.655 19918.656)">
    <path id="Vector" d="M7.452,3.726A3.726,3.726,0,1,1,3.726,0,3.726,3.726,0,0,1,7.452,3.726Z" transform="translate(-3469.422 -19912.988)" fill="#3e97ff"/>
    <path id="Vector-2" data-name="Vector" d="M31.31,9.1V22.214c0,5.7-3.4,9.1-9.1,9.1H9.1c-3.992,0-6.873-1.675-8.219-4.65A10.525,10.525,0,0,1,0,22.214V9.1C0,3.4,3.4,0,9.1,0H22.214c5.7,0,9.1,3.4,9.1,9.1ZM28.962,16.61V9.1c0-4.415-2.333-6.747-6.747-6.747H9.1c-4.415,0-6.747,2.333-6.747,6.747V22.214A8.349,8.349,0,0,0,2.9,25.3l5.855-3.929a3.477,3.477,0,0,1,4.133.219l.532.438a3.49,3.49,0,0,0,4.415,0l6.512-5.589a3.49,3.49,0,0,1,4.415,0Z" transform="translate(-3476.655 -19918.656)" fill="#3e97ff"/>
  </g>
</svg>
